<svg width="20" height="18" viewBox="0 0 20 18" fill="none" xmlns="http://www.w3.org/2000/svg">
<path fill-rule="evenodd" clip-rule="evenodd" d="M18.5 14.75C18.5 15.7165 17.7165 16.5 16.75 16.5H15.25C14.8358 16.5 14.5 16.8358 14.5 17.25C14.5 17.6642 14.8358 18 15.25 18H16.75C18.5449 18 20 16.5449 20 14.75V13.25C20 12.8358 19.6642 12.5 19.25 12.5C18.8358 12.5 18.5 12.8358 18.5 13.25V14.75ZM1.5 14.75C1.5 15.7165 2.2835 16.5 3.25 16.5L4.75 16.5C5.16421 16.5 5.5 16.8358 5.5 17.25C5.5 17.6642 5.16421 18 4.75 18H3.25C1.45507 18 0 16.5449 0 14.75V13.25C0 12.8358 0.335787 12.5 0.75 12.5C1.16421 12.5 1.5 12.8358 1.5 13.25V14.75ZM3.25 1.5C2.2835 1.5 1.5 2.2835 1.5 3.25L1.5 4.75C1.5 5.16421 1.16421 5.5 0.75 5.5C0.335787 5.5 0 5.16421 0 4.75L0 3.25C0 1.45507 1.45507 0 3.25 0H4.75C5.16421 0 5.5 0.335787 5.5 0.75C5.5 1.16421 5.16421 1.5 4.75 1.5H3.25ZM18.5 3.25C18.5 2.2835 17.7165 1.5 16.75 1.5H15.25C14.8358 1.5 14.5 1.16421 14.5 0.75C14.5 0.335787 14.8358 0 15.25 0H16.75C18.5449 0 20 1.45507 20 3.25L20 4.75C20 5.16421 19.6642 5.5 19.25 5.5C18.8358 5.5 18.5 5.16421 18.5 4.75L18.5 3.25ZM16 15H17V3H16V15ZM13.5 15H15L15 3H13.5L13.5 15ZM9.5 15L12 15L12 3H9.5L9.5 15ZM7.5 15H8.5L8.5 3H7.5L7.5 15ZM5 15H6.5L6.5 3H5L5 15ZM3 15H4L4 3H3L3 15Z" fill="black" fill-opacity="0.54"/>
</svg>