<svg width="24" height="24" viewBox="0 0 24 24" fill="none" xmlns="http://www.w3.org/2000/svg">
<path fill-rule="evenodd" clip-rule="evenodd" d="M15.7948 7.83333L13.4822 5.42433C13.1635 5.09232 13.1742 4.56479 13.5062 4.24606C13.8382 3.92733 14.3658 3.9381 14.6845 4.27011L18.0178 7.74233C18.0456 7.77127 18.0709 7.80169 18.0937 7.83333H20.183C20.2748 7.83333 20.3664 7.84092 20.457 7.85601C21.3649 8.00733 21.9783 8.86605 21.8269 9.774L20.5541 17.411C20.3532 18.6165 19.3102 19.5 18.0881 19.5H5.91189C4.68979 19.5 3.64681 18.6165 3.4459 17.411L2.17307 9.774C2.15798 9.68344 2.15039 9.5918 2.15039 9.5C2.15039 8.57952 2.89658 7.83333 3.81706 7.83333H5.90635C5.92913 7.80169 5.9544 7.77127 5.98218 7.74233L9.31552 4.27011C9.63425 3.9381 10.1618 3.92733 10.4938 4.24606C10.8258 4.56479 10.8366 5.09232 10.5178 5.42433L8.20519 7.83333H15.7948ZM3.81706 9.5L5.08989 17.137C5.15686 17.5388 5.50452 17.8333 5.91189 17.8333H18.0881C18.4955 17.8333 18.8432 17.5388 18.9101 17.137L20.183 9.5H3.81706ZM12 11.1667C12.4602 11.1667 12.8333 11.5398 12.8333 12V15.3333C12.8333 15.7936 12.4602 16.1667 12 16.1667C11.5398 16.1667 11.1667 15.7936 11.1667 15.3333V12C11.1667 11.5398 11.5398 11.1667 12 11.1667ZM7.83334 11.1667C8.29358 11.1667 8.66667 11.5398 8.66667 12V15.3333C8.66667 15.7936 8.29358 16.1667 7.83334 16.1667C7.3731 16.1667 7.00001 15.7936 7.00001 15.3333V12C7.00001 11.5398 7.3731 11.1667 7.83334 11.1667ZM16.1667 11.1667C16.6269 11.1667 17 11.5398 17 12V15.3333C17 15.7936 16.6269 16.1667 16.1667 16.1667C15.7064 16.1667 15.3333 15.7936 15.3333 15.3333V12C15.3333 11.5398 15.7064 11.1667 16.1667 11.1667Z" fill="black"/>
</svg>
