<svg width="24" height="24" viewBox="0 0 24 24" fill="none" xmlns="http://www.w3.org/2000/svg">
<path d="M17.838 3C19.5241 3 20.902 4.31941 20.995 5.98203L21 6.16144L20.9994 17.8385C20.9992 19.5845 19.5836 21 17.8374 21H6.16198C4.4759 21 3.09803 19.6806 3.00501 18.018L3 17.8386L3.00058 6.16146C3.00079 4.41548 4.41636 3 6.16255 3H17.838ZM11.2696 9.80947L4.45935 9.81045L4.45945 17.8385L4.46643 17.9948C4.54534 18.8618 5.2743 19.5408 6.16192 19.5408L11.2696 19.5402V9.80947ZM19.5393 15.6462L12.729 15.6471V19.5402L17.8373 19.5408C18.7777 19.5408 19.54 18.7786 19.5401 17.8384L19.5393 15.6462ZM17.8381 4.45917L12.729 4.4582V14.188L19.5393 14.187L19.5406 6.16151L19.5336 6.00516C19.4547 5.13822 18.7257 4.45917 17.8381 4.45917ZM11.2696 4.4582L6.16263 4.45917L6.02302 4.46483C5.14802 4.53591 4.46004 5.26843 4.45993 6.16157L4.45935 8.35127L11.2696 8.3503V4.4582Z" fill="black" fill-opacity="0.87"/>
</svg>