<svg width="20" height="20" viewBox="0 0 20 20" fill="none" xmlns="http://www.w3.org/2000/svg">
<path fill-rule="evenodd" clip-rule="evenodd" d="M13.7948 5.83312L11.4822 3.42412C11.1635 3.09211 11.1742 2.56458 11.5062 2.24585C11.8382 1.92712 12.3658 1.93789 12.6845 2.2699L16.0178 5.74212C16.0456 5.77106 16.0709 5.80148 16.0937 5.83312H18.183C18.2748 5.83312 18.3664 5.8407 18.457 5.85579C19.3649 6.00712 19.9783 6.86583 19.8269 7.77378L18.5541 15.4108C18.3532 16.6163 17.3102 17.4998 16.0881 17.4998H3.91189C2.68979 17.4998 1.64681 16.6163 1.4459 15.4108L0.173067 7.77378C0.157975 7.68323 0.150391 7.59159 0.150391 7.49978C0.150391 6.57931 0.896583 5.83312 1.81706 5.83312H3.90635C3.92913 5.80148 3.9544 5.77106 3.98218 5.74212L7.31552 2.2699C7.63425 1.93789 8.16177 1.92712 8.49378 2.24585C8.82579 2.56458 8.83656 3.09211 8.51783 3.42412L6.20519 5.83312H13.7948ZM1.81706 7.49978L3.08989 15.1368C3.15686 15.5386 3.50452 15.8331 3.91189 15.8331H16.0881C16.4955 15.8331 16.8432 15.5386 16.9101 15.1368L18.183 7.49978H1.81706ZM10 9.16645C10.4602 9.16645 10.8333 9.53955 10.8333 9.99978V13.3331C10.8333 13.7934 10.4602 14.1665 10 14.1665C9.53977 14.1665 9.16667 13.7934 9.16667 13.3331V9.99978C9.16667 9.53955 9.53977 9.16645 10 9.16645ZM5.83334 9.16645C6.29358 9.16645 6.66667 9.53955 6.66667 9.99978V13.3331C6.66667 13.7934 6.29358 14.1665 5.83334 14.1665C5.3731 14.1665 5.00001 13.7934 5.00001 13.3331V9.99978C5.00001 9.53955 5.3731 9.16645 5.83334 9.16645ZM14.1667 9.16645C14.6269 9.16645 15 9.53955 15 9.99978V13.3331C15 13.7934 14.6269 14.1665 14.1667 14.1665C13.7064 14.1665 13.3333 13.7934 13.3333 13.3331V9.99978C13.3333 9.53955 13.7064 9.16645 14.1667 9.16645Z" fill="black" fill-opacity="0.54"/>
</svg>
