<svg width="24" height="21" viewBox="0 0 24 21" fill="none" xmlns="http://www.w3.org/2000/svg">
<path fill-rule="evenodd" clip-rule="evenodd" d="M18.9999 0H22.9999C23.5522 0 23.9999 0.447715 23.9999 1C23.9999 1.55228 23.5522 2 22.9999 2H18.9999C18.4476 2 17.9999 1.55228 17.9999 1C17.9999 0.447715 18.4476 0 18.9999 0ZM18.9999 4H22.9999C23.5522 4 23.9999 4.44772 23.9999 5V6C23.9999 6.55228 23.5522 7 22.9999 7H18.9999C18.4476 7 17.9999 6.55228 17.9999 6V5C17.9999 4.44772 18.4476 4 18.9999 4ZM18.9999 9H22.9999C23.5522 9 23.9999 9.44772 23.9999 10C23.9999 10.5523 23.5522 11 22.9999 11H18.9999C18.4476 11 17.9999 10.5523 17.9999 10C17.9999 9.44772 18.4476 9 18.9999 9ZM18.9999 13H22.9999C23.5522 13 23.9999 13.4477 23.9999 14C23.9999 14.5523 23.5522 15 22.9999 15H18.9999C18.4476 15 17.9999 14.5523 17.9999 14C17.9999 13.4477 18.4476 13 18.9999 13ZM18.9999 17H22.9999C23.5522 17 23.9999 17.4477 23.9999 18V19C23.9999 19.5523 23.5522 20 22.9999 20H18.9999C18.4476 20 17.9999 19.5523 17.9999 19V18C17.9999 17.4477 18.4476 17 18.9999 17ZM13.9999 10V4H5.99989C5.94705 4 5.89454 4.00137 5.84237 4.00406C4.25832 4.08552 2.99902 5.3957 2.99902 7C2.99902 8.65685 4.34217 10 5.99902 10H13.9999ZM8.15486 17L6.93968 20.3417C6.79598 20.7369 6.4204 21 5.99989 21H0.999891C0.305926 21 -0.17706 20.3104 0.0600973 19.6583L3.16516 11.1193C1.85719 10.2175 0.999891 8.70888 0.999891 7C0.999891 4.23858 3.23847 2 5.99989 2H14.9999C15.5522 2 15.9999 2.44772 15.9999 3V11C15.9999 11.5523 15.5522 12 14.9999 12H13.9999V14C13.9999 15.6569 12.6567 17 10.9999 17H8.15486ZM8.88214 15H10.9999C11.5522 15 11.9999 14.5523 11.9999 14V12H9.97305L8.88214 15ZM5.99989 10H8.57219H5.99989ZM7.84492 12H5.99989C5.66056 12 5.32912 11.9662 5.00876 11.9018L2.42759 19H5.29946L7.84492 12Z" fill="black" fill-opacity="0.54"/>
</svg>
