<svg width="24" height="24" viewBox="0 0 24 24" fill="none" xmlns="http://www.w3.org/2000/svg">
<path fill-rule="evenodd" clip-rule="evenodd" d="M12.6855 0.521004C12.4074 0.0227855 11.7913 -0.147916 11.3095 0.13973L5.20374 3.78506L3.77093 1.21875C3.61461 0.938764 3.34143 0.749706 3.03152 0.707034L1.14039 0.446642C0.588928 0.370711 0.0823567 0.771443 0.00892882 1.3417C-0.0644991 1.91196 0.323022 2.4358 0.874482 2.51174L2.27412 2.70445L3.94095 5.6899C3.94762 5.70313 3.9546 5.71626 3.96188 5.7293L7.99115 12.9461L7.99444 12.952L10.5273 17.4886C9.16985 18.5909 8.76711 20.5859 9.65518 22.1765C10.6287 23.9202 12.785 24.5177 14.4713 23.5109C15.6892 22.7838 16.3289 21.4186 16.2234 20.0593L23.4962 15.7172C23.978 15.4295 24.143 14.7925 23.8649 14.2943C23.5867 13.796 22.9706 13.6254 22.4888 13.913L18.4595 6.69613C18.1814 6.19791 17.5653 6.02721 17.0835 6.31486L16.2111 6.8357L12.6855 0.521004ZM9.233 11.0019L6.21106 5.58927L7.955 4.54808L8.45866 5.45019C8.73683 5.94841 9.35289 6.11911 9.83468 5.83146C10.3165 5.54382 10.4816 4.90675 10.2034 4.40853L9.69973 3.50642L11.4444 2.46477L14.4664 7.87736L9.233 11.0019ZM12.8567 11.2441L13.3603 12.1461C13.6385 12.6444 14.2545 12.8151 14.7363 12.5274C15.2181 12.2398 15.3832 11.6027 15.105 11.1045L14.6014 10.2024L16.3461 9.16077L16.3536 9.15626L17.2184 8.63989L20.7441 14.9546L15.479 18.0981C14.7377 17.122 13.5791 16.6232 12.4248 16.7187L10.2403 12.8061L12.8567 11.2441ZM11.5598 19.3378C11.1552 19.827 11.071 20.5457 11.3999 21.1348C11.4513 21.2269 11.5104 21.3116 11.5759 21.3884C12.0343 21.926 12.805 22.0801 13.4332 21.7246C13.4435 21.7188 13.4537 21.7128 13.4639 21.7067C14.1866 21.2753 14.4342 20.3197 14.017 19.5723C13.5998 18.825 12.6757 18.569 11.953 19.0004C11.8 19.0917 11.6684 19.2065 11.5598 19.3378Z" fill="black" fill-opacity="0.54"/>
</svg>
