<svg width="24" height="24" viewBox="0 0 24 24" fill="none" xmlns="http://www.w3.org/2000/svg">
<path fill-rule="evenodd" clip-rule="evenodd" d="M19 2H23C23.5523 2 24 2.44772 24 3C24 3.55228 23.5523 4 23 4H19C18.4477 4 18 3.55228 18 3C18 2.44772 18.4477 2 19 2ZM19 6H23C23.5523 6 24 6.44772 24 7V8C24 8.55228 23.5523 9 23 9H19C18.4477 9 18 8.55228 18 8V7C18 6.44772 18.4477 6 19 6ZM19 11H23C23.5523 11 24 11.4477 24 12C24 12.5523 23.5523 13 23 13H19C18.4477 13 18 12.5523 18 12C18 11.4477 18.4477 11 19 11ZM19 15H23C23.5523 15 24 15.4477 24 16C24 16.5523 23.5523 17 23 17H19C18.4477 17 18 16.5523 18 16C18 15.4477 18.4477 15 19 15ZM19 19H23C23.5523 19 24 19.4477 24 20V21C24 21.5523 23.5523 22 23 22H19C18.4477 22 18 21.5523 18 21V20C18 19.4477 18.4477 19 19 19ZM14 12V6H6.00001C5.94718 6 5.89466 6.00137 5.84249 6.00406C4.25844 6.08552 2.99915 7.3957 2.99915 9C2.99915 10.6569 4.34229 12 5.99915 12H14ZM8.15499 19L6.93981 22.3417C6.7961 22.7369 6.42052 23 6.00001 23H1.00001C0.306048 23 -0.176938 22.3104 0.0602194 21.6583L3.16528 13.1193C1.85731 12.2175 1.00001 10.7089 1.00001 9C1.00001 6.23858 3.23859 4 6.00001 4H15C15.5523 4 16 4.44772 16 5V13C16 13.5523 15.5523 14 15 14H14V16C14 17.6569 12.6569 19 11 19H8.15499ZM8.88226 17H11C11.5523 17 12 16.5523 12 16V14H9.97317L8.88226 17ZM6.00001 12H8.57231H6.00001ZM7.84504 14H6.00001C5.66068 14 5.32924 13.9662 5.00889 13.9018L2.42771 21H5.29959L7.84504 14Z" fill="black" fill-opacity="0.87"/>
</svg>
